<?xml version="1.0" encoding="UTF-8"?>
<svg id="Layer_1" xmlns="http://www.w3.org/2000/svg" version="1.1" viewBox="0 0 64 64">
  <!-- Generator: Adobe Illustrator 30.1.0, SVG Export Plug-In . SVG Version: 2.1.1 Build 136)  -->
  <defs>
    <style>
      .st0 {
        fill: #f8c413;
      }

      .st1 {
        fill: #030303;
      }
    </style>
  </defs>
  <path class="st0" d="M63.72,29.22v5.56c-.31.11-.09.51-.15.82l-.34,1.97c-.7,4.02-2.08,7.85-4.25,11.28l-.7,1.1-2.16,2.76-2.46,2.56c-.41.42-.71.67-1.14,1.04-4.72,4.04-9.44,6.18-15.7,7.21l-9.37.02c-5.62-.7-12.06-3.59-16.22-7.35l-1.97-1.78c-.38-.35-.72-.81-1.08-1.22-2.16-2.43-3.99-5.11-5.23-8.12l-.77-1.87c-.89-2.17-1.3-4.47-1.77-6.78-.06-.31.22-.73-.13-.83v-6.7c.46-3.02.96-5.97,2.26-8.73.56-1.58,1.24-2.98,2.13-4.38l.97-1.51C10.05,7.37,19.98.99,27.73.62l2.47-.12c1.06-.05,2.19-.06,3.26,0l2.63.13c1.81.09,3.52.65,5.23,1.12s3.36,1.19,5.02,2.02c3.87,1.92,7.46,4.83,10.16,8.15l.94,1.16c1,1.23,1.71,2.53,2.49,3.89,1.31,2.31,3.13,7.07,3.3,9.64.06.92.26,1.81.48,2.61ZM32.54,56.41l.03,5.18c0,.78.69.98,1.36.94,7.34-.49,14.13-3.57,19.38-8.71.52-.51,1.05-1.05.85-1.8l-.79-2.96c.31-.39.51-.7.93-1.1.45.83.5,2.4,1.34,2.5.33.04.63-.03.86-.35,3.51-4.79,5.5-10.41,5.86-16.34.04-.69-.02-1.22-.74-1.55-4.75-2.17-9.64-3.84-14.75-4.96-.42-.09-.69-.19-.82-.56-.1-.28-.25-.67.16-.91,5.14,1.03,10,2.65,14.76,4.7.37.16.76.08.98-.14.16-.16.35-.45.32-.82-.5-6.22-2.91-12.04-6.85-16.84-.41-.5-1.06-.64-1.58-.35l-2.18,1.21c-.2-.34-.56-.79-.48-1.12.37-.51,1.92-.92,1.96-1.62.02-.31-.03-.66-.33-.93-5.25-4.87-11.98-7.81-19.14-8.24-.66-.04-1.09.42-1.09,1.04l-.04,8.51c-.47.06-.97.12-1.27-.13l-.03-8.47c0-.47-.41-.97-.9-.95-6.15.35-12.03,2.45-16.88,6.24-.95.74-1.88,1.36-2.62,2.28-.89,1.1,1.33,1.79,1.87,2.25-.1.42-.27.75-.53,1.16l-2.07-1.16c-.56-.31-1.26-.28-1.7.27-2.94,3.66-5.15,7.85-6.14,12.46-.22,1.01-1.22,4.97-.33,5.31.22.08.51.21.8.09,4.88-2.01,9.82-3.63,15.07-4.66.15.42-.02,1.27-.51,1.38-5.21,1.21-10.24,2.8-15.13,4.94-.71.31-.75.94-.72,1.59.06,1.19.29,2.28.44,3.45.3,2.3,1.03,4.36,1.87,6.5.89,2.28,2.11,4.3,3.51,6.3.24.34.55.5.94.44.86-.13.77-1.62,1.37-2.49.36.42.67.72.89,1.18-.63,2.14-1.47,3.18.16,4.75,5.27,5.11,12.2,8.23,19.56,8.61.6.03,1.05-.4,1.06-.95l.06-4.86c.23-.25.82-.42,1.24-.3Z"/>
  <path class="st1" d="M32.54,56.41c-.41-.12-1,.05-1.24.3l-.06,4.86c0,.55-.47.98-1.06.95-7.37-.37-14.29-3.5-19.56-8.61-1.63-1.58-.79-2.62-.16-4.75-.22-.46-.54-.76-.89-1.18-.59.88-.51,2.36-1.37,2.49-.39.06-.7-.1-.94-.44-1.4-2-2.62-4.02-3.51-6.3-.83-2.14-1.57-4.2-1.87-6.5-.15-1.16-.38-2.25-.44-3.45-.03-.65,0-1.28.72-1.59,4.88-2.14,9.92-3.73,15.13-4.94.49-.11.66-.96.51-1.38-5.25,1.04-10.19,2.66-15.07,4.66-.29.12-.58,0-.8-.09-.89-.34.11-4.3.33-5.31.99-4.61,3.2-8.8,6.14-12.46.45-.56,1.15-.59,1.7-.27l2.07,1.16c.26-.4.43-.74.53-1.16-.54-.46-2.76-1.15-1.87-2.25.75-.92,1.67-1.54,2.62-2.28,4.84-3.79,10.72-5.89,16.88-6.24.49-.03.9.48.9.95l.03,8.47c.3.26.8.2,1.27.13l.04-8.51c0-.62.43-1.08,1.09-1.04,7.17.43,13.89,3.37,19.14,8.24.3.28.35.62.33.93-.04.7-1.59,1.11-1.96,1.62-.08.32.29.78.48,1.12l2.18-1.21c.52-.29,1.17-.15,1.58.35,3.94,4.8,6.35,10.63,6.85,16.84.03.37-.16.66-.32.82-.22.22-.61.29-.98.14-4.76-2.05-9.62-3.66-14.76-4.7-.41.24-.25.62-.16.91.13.37.4.47.82.56,5.11,1.13,10.01,2.79,14.75,4.96.71.32.78.85.74,1.55-.36,5.93-2.35,11.55-5.86,16.34-.23.31-.53.39-.86.35-.84-.1-.89-1.67-1.34-2.5-.42.39-.62.71-.93,1.1l.79,2.96c.2.76-.33,1.29-.85,1.8-5.25,5.13-12.04,8.22-19.38,8.71-.67.04-1.36-.16-1.36-.94l-.03-5.18ZM34.39,43.62c.14-.41-.14-.86-.19-1.22-.1-.8.26-1.58.09-2.38-.13-.6-.36-1.18-.18-1.82.23-.84-.12-1.65-.04-2.43.08-.82-.13-1.53-.14-2.29-.02-1.19.14-2.26-.05-3.45-.13-.82-.19-1.65-.16-2.47l.11-2.43c.04-.92-.31-1.8-.11-2.73.11-.5-.17-.92-.16-1.39l.07-2.41c.02-.68-.41-1.35-.05-2.04.54-1.03-.98-.26-.01-2.91.35-.45,1.26-.16,1.68.05l2.56,1.32c.28-.46.14-.88.27-1.35.49.46.4,1.3.74,1.79.73.53,1.74.65,2.56.78l-.06-1.18c.46.38.47.84.76,1.3.92.2,1.87.29,2.8.17-.31-.91-.71-1.56-1.28-2.21,1.19.39,1.87,1.36,2.63,2.26.77-.03,1.47.12,2.16-.05-.15-.28-.12-.72.09-.59.53.53.88,1.02,1.72.98.08-.86.1-1.85-.36-2.58-.32-.26-.86-.07-1.2-.27l1.03-.38c-.29-.38-.55-1.16-.99-1.22-.89-.12-1.69.52-2.66.18.66-.27,1.25-.49,1.78-1.04-.61-.34-1.42-1.08-2.09-.93-.95.37-1.67,1.18-2.79,1.03.66-.5,1.28-.84,1.74-1.58-1.59-.24-3.23-.65-4.72-.1-.67.24-.9,1.35-1.78,1.48.14-.33.38-.79.32-1.21-1.63.1-2.62,1.36-4.07,2.05-1.53.73-3.9.72-5.38-.05-1.37-.71-2.3-1.83-3.91-2.01-.14.34.16.73.18,1.18-.77-.21-1.06-1.11-1.67-1.49-1.57-.37-3.2-.19-4.71.22.44.68,1.06.93,1.53,1.5-1.1.12-1.78-.8-2.7-.99-.68-.14-1.46.62-1.97.92.5.58,1.07.62,1.56,1.11-.86.16-1.62-.33-2.48-.26-.45.1-.68.83-.96,1.21.3.26.61.16.95.33-.39.24-.75.11-1.19.29-.24.72-.55,1.72-.27,2.52.45.29,1.38-.31,1.53-.93.4.17.21.43.33.73l2.12-.07c.61-.85,1.24-1.63,2.27-2.1-.28.87-.84,1.34-1.03,2.17.97-.06,1.91-.03,2.83-.26.29-.43.33-.9.71-1.22l.05,1.15c.84-.29,1.95-.25,2.55-.89.36-.38.1-1.24.71-1.5.12.37.04.8.32,1.14l2.48-1.33c.52-.28,1.04-.36,1.68-.24-.03.62.38,1.34.22,1.94-.13.47-.43.82-.23,1.37.22.62-.11,1.21-.09,1.79l.09,2.3c.02.65-.24,1.27-.12,1.93.13.76-.02,1.45-.16,2.2-.16.84.25,1.75.06,2.57-.22.9.04,1.79-.1,2.62-.19,1.08-.2,1.99-.06,3.15.09.69-.4,1.49-.04,2.22.23.47-.21.8-.27,1.13-.14.78.34,1.68.13,2.48-.27,1.03-.16,1.93-.11,2.99.03.6-.33,1.17-.08,1.81.23.6-.17,1.21-.16,1.78l.04,3.4c0,.78-.14,1.5-.13,2.3l.03,4.32c1.86.31,3.69.43,5.5-.06-.04-2.07,0-4.01.18-6.01l-.35-.71c.23.46.01-5.06.12-5.37ZM25.39,25.45v-3.09c-.67-.3-1.39-.4-2.15-.41l-6.44-.07c.65,1.32,1.24,2.64,2.68,3.07.03.68.18,1.36-.08,1.95l-.8,1.81c2.6-1.36,4.66-1.29,6.8-3.26ZM44.39,26.77c-.2-.48-.18-1.37,0-1.8,1.47-.62,1.91-1.68,2.64-3.09l-6.44.07c-.76,0-1.5.1-2.18.41l.02,3.2c1.33.8,2.46,1.81,3.82,2.52.85.44,1.94.22,2.92.63l-.8-1.95ZM19.5,33.05c.03.72-.32,1.39.07,2.2,1.05-.67,2.14-.93,3.22-1.35l5.17-1.99c-.96-.24-1.75-.07-2.64-.1v-4.25c-1.13.69-1.98,1.84-3.2,2.09l-2.68.55c-1.06.22-1.88,1.03-2.83,1.59l2.84-.47c-.04.59.04,1.17.07,1.72ZM44.32,33.12c-.02-.57.16-1.18.07-1.81.88-.06,1.46.54,2.43.32-.84-.59-1.68-1.12-2.62-1.47-.83-.31-1.84-.07-2.59-.55l-3.08-1.99-.02,4.2c-.87.03-1.67-.16-2.62.1,1.88.74,3.68,1.52,5.63,2.14.96.3,1.81.66,2.78,1.19.31-.75.05-1.42.02-2.13ZM23.22,40.46c.67-.29,1.49-.35,1.88-.95s-.48-1.47,1.35-3.57c.31-.36.81-.47.95-1.01-2.53.18-1.74,1.27-3.35,1.55l-4.65.81-.06,4.05c2.29-.91,1,.36,3.88-.88ZM44.46,41.31l-.05-4.04-4.48-.75c-1.91-.32-.73-1.21-3.33-1.6-.1.65.44.63.71.93,1.81,1.98,1.1,3.19,1.42,3.66.47.67,1.38.7,2.08,1.02,2.36,1.07,1.52-.02,3.66.78ZM10.58,44.28c1.97-.32,3.71-.79,5.53-1.37l.04-2.26c-2.8.41-5.43.9-8.07,1.73.85.28,1.61,0,2.4.18.2.54.05,1.09.09,1.72ZM53.38,42.62l2.47-.23c-2.61-.77-5.3-1.33-8.17-1.73-.03.8-.04,1.5.06,2.26,1.83.56,3.57,1.07,5.52,1.36.07-.53-.23-1.35.13-1.65ZM10.63,46.72l1.99,2.41,6.07.13,7.81.07c-1.67-3.57-1.34-1.78-1.3-6.09.74-.66,1.52-.97,2.14-1.76-.95,0-1.59.49-2.41.64-3.33.65-2.11-.03-5.57,1.74l-.14,1.05c-.8.06-1.55.08-2.26-.05.26-.27.66-.25.63-.69-2.38.74-4.65,1.33-7.02,1.83-.14.06-.04.59.07.73ZM53,45.9c-2.17-.36-4.1-.92-6.1-1.53-.17-.05-.39.15-.35.23.03.06.15.17.11.29-.61.08-1.39.09-2.04.03-.13-.39-.08-.66-.15-1.04l-2.27-1.13c-1-.5-2.2-.4-3.3-.61-.83-.16-1.45-.69-2.48-.65l2.23,1.82c-.06,4.12.41,2.62-1.41,6.02l7.77-.05,6.12-.12c.18-.34,3.11-3.05,1.86-3.26Z"/>
  <path class="st0" d="M34.39,43.62c-.11.31.11,5.83-.12,5.37l.35.71c-.19,2-.23,3.93-.18,6.01-1.82.49-3.64.37-5.5.06l-.03-4.32c0-.79.14-1.52.13-2.3l-.04-3.4c0-.57.4-1.18.16-1.78-.25-.65.1-1.21.08-1.81-.05-1.06-.16-1.96.11-2.99.21-.8-.27-1.7-.13-2.48.06-.33.49-.66.27-1.13-.35-.74.13-1.53.04-2.22-.14-1.16-.14-2.06.06-3.15.15-.83-.11-1.72.1-2.62.2-.82-.21-1.73-.06-2.57.14-.74.29-1.43.16-2.2-.11-.66.15-1.28.12-1.93l-.09-2.3c-.02-.58.31-1.17.09-1.79-.2-.55.1-.9.23-1.37.16-.6-.24-1.31-.22-1.94-.64-.12-1.16-.04-1.68.24l-2.48,1.33c-.29-.34-.2-.77-.32-1.14-.62.26-.36,1.12-.71,1.5-.6.64-1.71.6-2.55.89l-.05-1.15c-.38.32-.42.79-.71,1.22-.92.23-1.87.2-2.83.26.19-.83.75-1.3,1.03-2.17-1.03.46-1.65,1.25-2.27,2.1l-2.12.07c-.12-.3.07-.56-.33-.73-.15.62-1.08,1.22-1.53.93-.28-.8.03-1.79.27-2.52.44-.18.8-.05,1.19-.29-.34-.17-.65-.07-.95-.33.27-.39.51-1.11.96-1.21.85-.07,1.62.42,2.48.26-.49-.48-1.06-.53-1.56-1.11.51-.3,1.29-1.06,1.97-.92.92.19,1.6,1.11,2.7.99-.47-.56-1.09-.82-1.53-1.5,1.5-.41,3.14-.59,4.71-.22.6.38.9,1.28,1.67,1.49-.02-.45-.32-.84-.18-1.18,1.61.18,2.54,1.3,3.91,2.01,1.48.77,3.85.78,5.38.05,1.45-.69,2.44-1.95,4.07-2.05.06.41-.19.88-.32,1.21.88-.13,1.11-1.24,1.78-1.48,1.49-.54,3.13-.14,4.72.1-.46.75-1.08,1.08-1.74,1.58,1.13.15,1.85-.66,2.79-1.03.67-.15,1.48.59,2.09.93-.52.55-1.12.78-1.78,1.04.96.34,1.77-.3,2.66-.18.44.06.7.84.99,1.22l-1.03.38c.34.21.88,0,1.2.27.46.73.44,1.72.36,2.58-.83.04-1.19-.45-1.72-.98-.2-.12-.24.32-.09.59-.69.17-1.39.02-2.16.05-.76-.9-1.44-1.87-2.63-2.26.57.66.97,1.3,1.28,2.21-.94.12-1.89.03-2.8-.17-.29-.45-.3-.92-.76-1.3l.06,1.18c-.82-.14-1.83-.25-2.56-.78-.34-.49-.25-1.33-.74-1.79-.14.47,0,.89-.27,1.35l-2.56-1.32c-.42-.22-1.33-.51-1.68-.05-.97,2.65.55,1.88.01,2.91-.36.69.07,1.36.05,2.04l-.07,2.41c-.01.47.27.89.16,1.39-.2.94.15,1.82.11,2.73l-.11,2.43c-.04.82.03,1.66.16,2.47.18,1.2.03,2.26.05,3.45.01.76.23,1.47.14,2.29-.08.78.27,1.59.04,2.43-.18.63.05,1.22.18,1.82.17.8-.19,1.58-.09,2.38.05.36.33.8.19,1.22Z"/>
  <path class="st0" d="M10.63,46.72c-.11-.14-.21-.66-.07-.73,2.38-.49,4.64-1.09,7.02-1.83.03.44-.37.42-.63.69.72.13,1.46.11,2.26.05l.14-1.05c3.47-1.77,2.24-1.09,5.57-1.74.82-.16,1.46-.65,2.41-.64-.62.79-1.4,1.1-2.14,1.76-.04,4.31-.36,2.52,1.3,6.09l-7.81-.07-6.07-.13-1.99-2.41Z"/>
  <path class="st0" d="M53,45.9c1.25.21-1.68,2.92-1.86,3.26l-6.12.12-7.77.05c1.82-3.4,1.35-1.9,1.41-6.02l-2.23-1.82c1.04-.04,1.65.5,2.48.65,1.1.21,2.3.11,3.3.61l2.27,1.13c.06.38.02.65.15,1.04.65.06,1.42.05,2.04-.03.04-.12-.08-.23-.11-.29-.04-.08.18-.28.35-.23,2.01.61,3.93,1.17,6.1,1.53Z"/>
  <path class="st0" d="M25.39,25.45c-2.14,1.97-4.19,1.91-6.8,3.26l.8-1.81c.26-.59.1-1.27.08-1.95-1.44-.44-2.03-1.75-2.68-3.07l6.44.07c.76,0,1.49.11,2.16.41v3.09Z"/>
  <path class="st0" d="M19.5,33.05c-.03-.55-.11-1.13-.07-1.72l-2.84.47c.94-.56,1.77-1.37,2.83-1.59l2.68-.55c1.22-.25,2.08-1.41,3.21-2.09v4.25c.88.03,1.68-.15,2.64.1l-5.17,1.99c-1.08.41-2.16.67-3.22,1.35-.39-.81-.03-1.48-.07-2.2Z"/>
  <path class="st0" d="M44.32,33.12c.02.71.28,1.38-.02,2.13-.97-.53-1.82-.89-2.78-1.19-1.95-.62-3.75-1.4-5.63-2.14.96-.25,1.75-.07,2.62-.1l.02-4.2,3.08,1.99c.75.48,1.76.24,2.59.55.94.35,1.78.88,2.62,1.47-.98.22-1.56-.38-2.43-.32.09.64-.09,1.25-.07,1.81Z"/>
  <path class="st0" d="M23.22,40.46c-2.88,1.24-1.59-.03-3.88.88l.06-4.05,4.65-.81c1.61-.28.82-1.37,3.35-1.55-.15.53-.64.64-.95,1.01-1.83,2.1-.96,2.98-1.35,3.57s-1.21.66-1.88.95Z"/>
  <path class="st0" d="M44.46,41.31c-2.14-.8-1.3.29-3.66-.78-.7-.32-1.61-.35-2.08-1.02-.32-.46.39-1.68-1.42-3.66-.27-.3-.81-.27-.71-.93,2.61.38,1.42,1.28,3.33,1.6l4.48.75.05,4.04Z"/>
  <path class="st0" d="M53.38,42.62c-.35.3-.05,1.12-.13,1.65-1.95-.28-3.7-.8-5.52-1.36-.1-.77-.09-1.46-.06-2.26,2.87.4,5.56.96,8.17,1.73l-2.47.23Z"/>
  <path class="st0" d="M10.58,44.28c-.04-.63.11-1.18-.09-1.72-.79-.17-1.55.1-2.4-.18,2.63-.83,5.27-1.32,8.07-1.73l-.04,2.26c-1.82.58-3.56,1.05-5.53,1.37Z"/>
  <path class="st0" d="M44.39,26.77l.8,1.95c-.98-.41-2.07-.19-2.92-.63-1.37-.72-2.5-1.72-3.82-2.52l-.02-3.2c.68-.31,1.41-.4,2.18-.41l6.44-.07c-.73,1.42-1.17,2.47-2.64,3.09-.19.43-.2,1.32,0,1.8Z"/>
</svg>